# xmcd CD database file
#
# Track frame offsets:
#	150
#	3552
#	27262
#	46488
#	71801
#	97143
#	118382
#	139560
#	167270
#	188580
#	218969
#	247329
#	269740
#
# Disc length: 3948 seconds
#
# Revision: 1
# Processed by: cddbd v1.5.2PL0 Copyright (c) Steve Scherf et al.
# Submitted via: CDex 1.70beta3
#
DISCID=c70f6a0d
DTITLE=CHEMISTRY - Winter of Love
DYEAR=2008
DGENRE=R&B
TTITLE0=Scent of Winter
TTITLE1=愛しすぎて ～'08 winter ver.～
TTITLE2=クリスマス・イブ
TTITLE3=ココロノドア
TTITLE4=My Gift to You ～'08 winter ver.～
TTITLE5=涙のあと (Album Mix)
TTITLE6=It Takes Two ～'08 winter ver.～
TTITLE7=So in Vain
TTITLE8=ラヴ・イズ・オーヴァー
TTITLE9=You Go Your Way (Album Version)
TTITLE10=最期の川
TTITLE11=恋する雪 愛する空
TTITLE12=クリスマスローズ
EXTD=YEAR: 2008
EXTT0=
EXTT1=
EXTT2=
EXTT3=
EXTT4=
EXTT5=
EXTT6=
EXTT7=
EXTT8=
EXTT9=
EXTT10=
EXTT11=
EXTT12=
PLAYORDER=
